<svg width="18" height="16" viewBox="0 0 18 16" fill="none" xmlns="http://www.w3.org/2000/svg">
<path d="M17.7026 6.80992L13.2769 9.98347L14.9533 15.1405C15.0204 15.405 14.9533 15.7355 14.6851 15.8678C14.551 15.9339 14.4169 16 14.2828 16C14.1487 16 14.0145 15.9339 13.8804 15.8678L9.45475 12.6942L5.02907 15.8017C4.76085 15.9339 4.49263 15.9339 4.2244 15.8017C3.95618 15.6033 3.88912 15.3388 3.95618 15.0744L5.69963 9.98347L1.27395 6.80992C1.07278 6.61157 0.938669 6.28099 1.00572 6.01653C1.13984 5.75207 1.40806 5.61983 1.67628 5.61983H7.17486L8.85125 0.46281C8.91831 0.198347 9.18653 0 9.52181 0C9.79003 0 10.0583 0.198347 10.1253 0.46281L11.8017 5.61983H17.3003C17.5685 5.61983 17.8367 5.81818 17.9708 6.08264C18.0379 6.28099 17.9038 6.61157 17.7026 6.80992Z" fill="#FFE084"/>
</svg>
